<?xml version="1.0" encoding="UTF-8" standalone="no"?>
<!-- Created with Inkscape (http://www.inkscape.org/) -->

<svg
   xmlns:dc="http://purl.org/dc/elements/1.1/"
   xmlns:cc="http://creativecommons.org/ns#"
   xmlns:rdf="http://www.w3.org/1999/02/22-rdf-syntax-ns#"
   xmlns:svg="http://www.w3.org/2000/svg"
   xmlns="http://www.w3.org/2000/svg"
   xmlns:sodipodi="http://sodipodi.sourceforge.net/DTD/sodipodi-0.dtd"
   xmlns:inkscape="http://www.inkscape.org/namespaces/inkscape"
   id="svg3004"
   version="1.1"
   inkscape:version="0.48.4 r9939"
   width="552.5"
   height="552.5"
   xml:space="preserve"
   sodipodi:docname="WMUSeal-CClubOUTLINES.svg"><metadata
     id="metadata3010"><rdf:RDF><cc:Work
         rdf:about=""><dc:format>image/svg+xml</dc:format><dc:type
           rdf:resource="http://purl.org/dc/dcmitype/StillImage" /><dc:title></dc:title></cc:Work></rdf:RDF></metadata><defs
     id="defs3008"><clipPath
       clipPathUnits="userSpaceOnUse"
       id="clipPath3018"><path
         d="M 0,792 612,792 612,0 0,0 0,792 z"
         id="path3020"
         inkscape:connector-curvature="0" /></clipPath></defs><sodipodi:namedview
     pagecolor="#ffffff"
     bordercolor="#666666"
     borderopacity="1"
     objecttolerance="10"
     gridtolerance="10"
     guidetolerance="10"
     inkscape:pageopacity="0"
     inkscape:pageshadow="2"
     inkscape:window-width="1366"
     inkscape:window-height="747"
     id="namedview3006"
     showgrid="false"
     inkscape:zoom="0.58484848"
     inkscape:cx="114.90933"
     inkscape:cy="221.42487"
     inkscape:window-x="0"
     inkscape:window-y="21"
     inkscape:window-maximized="0"
     inkscape:current-layer="g3012" /><g
     id="g3012"
     inkscape:groupmode="layer"
     inkscape:label="WMUSeal-CClubOUTLINES"
     transform="matrix(1.25,0,0,-1.25,0,552.5)"><g
       id="g3014"
       transform="translate(-85,-185.5758)"><g
         id="g3016"
         clip-path="url(#clipPath3018)"><g
           id="g3022"
           transform="translate(522,406.5708)"><path
             d="m 0,0 c 0,119.325 -96.684,216 -216,216 -119.322,0 -216,-96.675 -216,-216 0,-119.319 96.678,-215.995 216,-215.995 119.316,0 216,96.676 216,215.995"
             style="fill:none;stroke:#ffffff;stroke-width:10;stroke-linecap:butt;stroke-linejoin:miter;stroke-miterlimit:10;stroke-opacity:1;stroke-dasharray:none"
             id="path3024"
             inkscape:connector-curvature="0" /></g><g
           id="g3026"
           transform="translate(481.4414,407.2681)"><path
             d="m 0,0 c 0,96.402 -78.209,174.468 -174.471,174.468 -96.403,0 -174.604,-78.066 -174.604,-174.468 0,-96.403 78.201,-174.465 174.604,-174.465 C -78.209,-174.465 0,-96.403 0,0"
             style="fill:none;stroke:#ffffff;stroke-width:10;stroke-linecap:butt;stroke-linejoin:miter;stroke-miterlimit:4;stroke-opacity:1;stroke-dasharray:none"
             id="path3028"
             inkscape:connector-curvature="0" /></g><g
           id="g3030"
           transform="translate(303.2212,204.8789)"><path
             d="m 0,0 c 4.586,0 8.332,3.615 8.332,8.197 0,4.586 -3.746,8.336 -8.332,8.336 -4.583,0 -8.196,-3.75 -8.196,-8.336 C -8.196,3.615 -4.583,0 0,0"
             style="fill:#ffffff;fill-opacity:1;fill-rule:evenodd;stroke:none"
             id="path3032"
             inkscape:connector-curvature="0" /></g><g
           id="g3034"
           transform="translate(254.186,211.4082)"><path
             d="M 0,0 C 4.585,0 8.196,3.748 8.196,8.336 8.196,12.92 4.585,16.67 0,16.67 -4.582,16.67 -8.333,12.92 -8.333,8.336 -8.333,3.748 -4.582,0 0,0"
             style="fill:#ffffff;fill-opacity:1;fill-rule:evenodd;stroke:none"
             id="path3036"
             inkscape:connector-curvature="0" /></g><g
           id="g3038"
           transform="translate(352.1182,210.3008)"><path
             d="m 0,0 c 4.581,0 8.193,3.748 8.193,8.33 0,4.586 -3.612,8.199 -8.193,8.199 -4.585,0 -8.337,-3.613 -8.337,-8.199 C -8.337,3.748 -4.585,0 0,0"
             style="fill:#ffffff;fill-opacity:1;fill-rule:evenodd;stroke:none"
             id="path3040"
             inkscape:connector-curvature="0" /></g><g
           id="g3042"
           transform="translate(173.9009,254.75)"><path
             d="M 0,0 C -1.114,1.109 -0.975,1.947 0.274,2.775 L 5.694,5.969 2.636,-5.557 2.359,-7.225 5.277,-9.588 17.362,-3.057 16.25,-8.473 c -0.556,-1.529 -1.387,-3.199 -2.917,-2.084 l -1.114,0.969 -2.637,-3.193 1.25,-1.112 c 1.112,-0.834 8.473,-6.668 9.725,-7.638 l 1.526,-1.112 2.779,3.332 -1.807,1.532 c -1.388,1.246 -1.248,2.222 -0.692,4.441 L 25.835,0 21.254,3.75 10.971,-1.252 13.75,9.443 9.304,12.918 -3.06,5.969 C -4.725,5.141 -6.529,4.861 -7.643,5.832 l -0.971,0.834 -2.777,-2.916 1.388,-1.254 c 1.526,-1.387 5.695,-4.719 7.083,-5.832 L -1.393,-4.449 1.249,-1.395 0,0"
             style="fill:#ffffff;fill-opacity:1;fill-rule:evenodd;stroke:none"
             id="path3044"
             inkscape:connector-curvature="0" /></g><g
           id="g3046"
           transform="translate(165.9824,279.0566)"><path
             d="M 0,0 C -1.114,0.971 -2.225,0.971 -3.612,0.141 -5,-0.832 -7.779,-3.607 -9.029,-4.584 -10.143,-5.695 -9.585,-6.811 -8.89,-7.779 l 1.248,-1.668 -3.054,-2.498 c -1.114,1.109 -15.837,19.863 -16.949,20.972 0.833,0.557 4.864,3.889 6.112,4.725 l 2.086,-2.777 -1.388,-1.252 c -1.253,-1.389 -0.698,-2.08 0.693,-3.891 0.832,-0.971 2.778,-3.469 3.613,-4.584 l 1.248,-1.525 3.471,2.916 -1.388,1.664 c -0.833,0.976 -1.39,1.392 -2.36,0.976 l -0.832,-0.697 -2.504,3.197 5.976,5.137 2.5,-3.471 -0.834,-0.693 C -11.81,8.057 -11.67,7.367 -10.557,6.111 l 1.111,-1.668 3.748,3.2 -1.248,1.662 c -0.696,0.976 -3.058,3.89 -3.75,4.726 -1.114,1.389 -2.222,2.225 -3.614,1.25 l -1.667,-1.25 -2.08,2.916 c 1.109,0.973 4.582,3.612 5.693,4.582 L 4.859,0.83 1.667,-1.803 0,0"
             style="fill:#ffffff;fill-opacity:1;fill-rule:evenodd;stroke:none"
             id="path3048"
             inkscape:connector-curvature="0" /></g><g
           id="g3050"
           transform="translate(146.6724,311.8398)"><path
             d="m 0,0 c -0.554,0 -0.971,0.412 -1.248,1.947 -0.277,1.526 -0.556,4.16 -2.781,7.912 -2.083,3.473 -5.694,6.811 -10.417,5.004 -4.306,-1.808 -3.335,-7.64 -1.529,-11.252 1.808,-3.611 3.198,-7.781 1.808,-8.474 -1.53,-0.696 -3.614,1.39 -4.585,3.748 -0.969,2.365 -2.641,5.699 -1.388,7.502 l 0.693,0.836 -1.111,2.916 -1.388,-0.549 c -1.389,-0.701 -1.946,-0.838 -2.779,-1.256 l -1.666,-0.838 1.25,-2.773 1.249,-0.28 c 1.113,-0.136 0.974,-0.832 1.113,-1.668 0.138,-0.966 0.554,-3.89 2.5,-7.22 1.946,-3.334 5.973,-7.639 10.696,-5.276 4.725,2.221 3.471,7.498 1.112,11.807 -2.364,4.439 -2.918,6.666 -1.807,7.361 0.974,0.692 2.776,0.143 4.582,-3.06 1.667,-3.194 2.644,-5.975 1.667,-7.778 l -0.556,-1.25 1.533,-3.058 1.248,0.558 c 1.529,0.83 2.221,1.11 3.192,1.668 L 2.502,-2.777 0.975,0 0,0"
             style="fill:#ffffff;fill-opacity:1;fill-rule:evenodd;stroke:none"
             id="path3052"
             inkscape:connector-curvature="0" /></g><g
           id="g3054"
           transform="translate(121.8081,334.2031)"><path
             d="m 0,0 c -1.388,-0.42 -4.167,-1.527 -5.275,-1.805 l -1.946,-0.554 -0.696,2.218 c -1.529,4.586 -5.277,15.559 -6.945,20.977 l -0.556,1.945 2.224,0.698 c 1.527,0.55 2.082,0.691 3.469,1.109 l 1.808,0.551 1.39,-4.303 -2.085,-0.693 c -1.526,-0.557 -0.971,-2.225 -0.415,-3.473 0.415,-1.252 0.694,-1.668 1.945,-1.252 1.109,0.279 6.249,2.082 7.919,2.641 1.525,0.554 1.386,1.527 0.971,3.056 L 1.39,22.781 5.417,23.891 10.281,8.332 6.112,7.223 5.417,9.588 C 4.864,11.113 3.471,11.113 1.529,10.557 -0.277,9.998 -2.362,9.17 -5,8.332 -6.388,7.918 -5.833,6.389 -5.554,5.418 -5,3.887 -4.444,3.473 -3.194,3.611 L -1.388,4.168 0,0"
             style="fill:#ffffff;fill-opacity:1;fill-rule:evenodd;stroke:none"
             id="path3056"
             inkscape:connector-curvature="0" /></g><g
           id="g3058"
           transform="translate(113.752,420.8794)"><path
             d="m 0,0 c 0,1.388 0.14,2.501 0.14,5.139 0,2.642 1.806,2.778 4.166,2.778 2.502,0 5.002,0.279 5.002,5.833 0,5.978 -3.196,5.419 -5.418,5.419 -2.222,0 -2.085,-1.806 0.695,-1.806 1.527,0 2.223,-2.358 0.138,-2.358 -3.469,0 -5,-0.697 -6.113,-2.363 -0.692,2.363 -2.22,4.168 -4.86,4.168 -2.362,0 -5.277,-1.944 -5.417,-6.671 C -11.946,4.724 -12.638,-5.279 -12.638,-10 l 0.136,-1.389 3.612,0.137 0,1.67 c 0,1.663 0.975,2.636 2.64,2.636 1.806,0 5.14,0.139 6.667,0 C 2.083,-7.083 3.056,-7.919 3.056,-10 l 0,-1.667 4.444,0 c 0,2.5 0.696,13.197 0.837,15.277 L 3.89,3.61 3.753,1.944 C 3.475,-0.416 1.668,-0.14 0,0"
             style="fill:#ffffff;fill-opacity:1;fill-rule:evenodd;stroke:none"
             id="path3060"
             inkscape:connector-curvature="0" /></g><g
           id="g3062"
           transform="translate(110.8354,455.4692)"><path
             d="M 0,0 C 0.695,1.665 1.667,1.942 3.333,1.386 5.14,0.833 7.223,0.138 8.89,-0.558 c 1.666,-0.692 2.501,-1.248 2.222,-3.054 l -0.695,-2.223 4.445,-1.388 c 0.417,1.802 3.334,10.831 4.169,13.056 L 14.862,7.221 14.169,5.275 C 13.612,3.748 12.224,3.056 10.973,3.473 9.725,4.027 7.362,5.001 6.112,5.554 c 3.473,2.225 11.81,8.337 14.169,9.861 2.221,1.391 2.779,2.224 3.335,3.335 l 0.692,2.225 C 22.92,21.531 14.306,24.446 11.67,25.42 9.725,26.11 9.168,27.364 9.725,28.475 l 0.692,2.085 -4.166,1.248 C 5.833,30.42 2.5,20.975 1.806,19.445 l 4.167,-1.248 0.556,1.248 C 7.085,20.7 7.918,21.67 9.585,21.252 11.254,20.7 12.224,20.143 13.751,19.585 9.446,16.668 3.891,12.777 1.946,11.529 0,10.277 -1.388,9.306 -2.221,6.806 -3.055,4.167 -4.446,0.417 -4.861,-0.692 L -0.972,-2.082 0,0"
             style="fill:#ffffff;fill-opacity:1;fill-rule:evenodd;stroke:none"
             id="path3064"
             inkscape:connector-curvature="0" /></g><g
           id="g3066"
           transform="translate(165.8428,550.064)"><path
             d="m 0,0 c -0.974,-0.969 -1.11,-1.946 0.275,-3.194 1.254,-1.252 4.171,-3.891 5.28,-4.86 1.25,-0.977 2.085,-1.116 3.472,0.277 l 1.252,1.25 2.778,-2.643 c -1.251,-1.386 -8.611,-9.721 -9.724,-11.111 l -2.918,2.778 1.114,1.389 c 0.417,0.696 0.278,1.248 -0.696,2.364 -1.112,1.11 -4.306,3.471 -5.833,5.138 0.833,-2.363 3.61,-10.419 4.721,-14.029 0.554,-1.667 0.419,-1.807 -1.527,-1.667 -1.667,0.14 -9.446,1.527 -13.891,2.083 0.974,-0.974 4.166,-3.471 5.14,-4.447 0.972,-0.83 2.22,-0.83 3.055,0 l 0.835,0.976 3.194,-2.92 c -0.972,-1.25 -6.806,-7.637 -7.918,-8.611 l -2.919,2.638 1.252,1.668 c 0.834,1.113 0.279,2.224 -0.973,3.473 -1.25,1.109 -3.612,2.915 -5,4.031 -1.387,1.249 -2.5,0.553 -3.75,-0.558 l -0.974,-1.114 -2.917,2.781 c 1.669,1.804 5.558,6.252 6.948,7.64 1.389,1.385 2.081,1.525 3.753,1.25 1.801,-0.14 5.275,-0.834 9.58,-1.528 -0.832,2.359 -2.499,7.361 -3.194,9.303 -0.558,1.806 -0.694,2.364 0.556,3.752 2.362,2.643 6.25,6.945 7.223,8.06 L 1.109,1.25 0,0"
             style="fill:#ffffff;fill-opacity:1;fill-rule:evenodd;stroke:none"
             id="path3068"
             inkscape:connector-curvature="0" /></g><g
           id="g3070"
           transform="translate(184.7324,552.2852)"><path
             d="m 0,0 c 1.252,1.25 0.835,2.639 -0.14,3.891 -0.833,1.251 -3.192,3.888 -4.027,4.864 -0.691,1.109 -2.084,1.248 -3.473,0.274 l -1.387,-1.111 -2.641,3.334 c 1.529,1.25 10.141,8.612 12.224,10.281 L 3.335,18.196 1.667,16.808 c -1.111,-0.831 -1.25,-2.225 0,-3.473 1.114,-1.248 2.918,-3.61 4.17,-5.138 1.248,-1.527 2.5,-0.974 3.332,-0.279 l 1.666,1.388 2.781,-3.333 C 11.113,3.891 3.613,-2.221 0.973,-4.721 L -1.667,-1.527 0,0"
             style="fill:#ffffff;fill-opacity:1;fill-rule:evenodd;stroke:none"
             id="path3072"
             inkscape:connector-curvature="0" /></g><g
           id="g3074"
           transform="translate(220.0137,578.2617)"><path
             d="m 0,0 c 0,-1.527 -1.388,-4.307 -3.752,-5.835 -2.636,-1.806 -7.775,-2.357 -9.998,1.668 -2.082,4.167 -0.415,7.502 2.777,9.721 2.641,1.946 5.004,1.81 6.668,0.975 0.972,-0.419 1.111,-0.419 1.806,-0.835 l 3.332,2.083 c -1.11,2.083 -3.19,5.138 -4.166,6.671 l -3.334,-2.084 0.14,-0.697 c 0,-0.558 0,-0.832 -1.113,-1.111 -0.971,-0.277 -4.442,-0.416 -7.918,-2.918 -4.165,-3.194 -9.719,-9.028 -4.165,-16.806 4.165,-5.971 11.946,-3.892 16.115,-1.109 4.302,2.775 8.193,6.804 7.22,12.639 C 3.477,3.056 3.197,3.752 2.918,4.165 L -0.138,2.219 C 0,1.668 0,0.556 0,0"
             style="fill:#ffffff;fill-opacity:1;fill-rule:evenodd;stroke:none"
             id="path3076"
             inkscape:connector-curvature="0" /></g><g
           id="g3078"
           transform="translate(242.2402,593.8198)"><path
             d="M 0,0 10.558,3.333 C 10.419,3.89 10.281,4.444 10.142,4.723 9.863,5.971 8.752,6.806 7.085,6.388 L 5.558,5.971 4.585,9.86 c 1.944,0.558 12.361,3.891 15.142,4.581 l 1.11,-4.162 -2.085,-0.558 C 17.363,9.446 16.81,8.194 17.224,6.527 17.781,4.998 18.475,1.946 19.03,0.138 c 0.557,-1.944 1.807,-1.944 2.916,-1.526 l 2.085,0.551 1.25,-4.165 C 22.087,-5.975 13.198,-8.194 9.863,-9.448 l -1.251,4.03 2.223,0.695 c 1.665,0.553 1.248,1.802 0.974,3.335 0,0.138 0,0.415 -0.14,0.694 L 1.252,-3.892 c 0.14,-0.557 0.275,-0.968 0.415,-1.387 0.694,-1.806 1.806,-1.806 3.058,-1.39 l 1.11,0.279 1.25,-4.027 c -3.197,-1.114 -11.252,-3.752 -14.723,-5.141 l -1.253,4.164 2.083,0.698 c 1.669,0.558 1.669,2.086 1.39,3.611 -0.415,1.527 -1.667,4.721 -1.946,5.975 -0.413,1.248 -1.527,2.083 -3.194,1.525 L -12.362,0 -13.61,4.027 C -11.667,4.723 -1.112,8.054 1.527,8.89 L 2.64,4.862 0.833,4.306 C -0.417,3.89 -0.973,2.638 -0.417,1.11 -0.277,0.831 -0.138,0.415 0,0"
             style="fill:#ffffff;fill-opacity:1;fill-rule:evenodd;stroke:none"
             id="path3080"
             inkscape:connector-curvature="0" /></g><g
           id="g3082"
           transform="translate(321.5576,592.2925)"><path
             d="m 0,0 c -0.418,0.554 -1.528,0.417 -2.36,0 -0.973,-0.558 -2.223,-1.116 -5.279,-1.116 -6.111,0 -12.504,3.198 -12.643,11.256 -0.14,8.056 7.222,10.417 12.643,10.417 5.415,0 7.361,-1.667 8.333,-2.224 0.972,-0.558 1.386,-0.137 1.805,0.279 0.278,0.278 0.556,0.697 0.695,0.971 l 3.475,0 c 0,-1.11 -0.418,-6.808 -0.418,-7.777 l -3.612,0.14 -0.973,1.527 c -1.805,2.637 -3.334,2.637 -7.086,2.777 -3.89,0.137 -6.943,-2.362 -7.083,-6.529 -0.14,-4.721 3.612,-6.527 6.804,-6.806 3.061,-0.14 3.615,1.25 3.615,1.946 0,0.694 -0.554,1.11 -1.946,1.249 L -5.699,6.25 -5.56,9.442 C -1.528,9.303 6.111,8.888 10.277,8.75 L 10.141,5.275 C 9.586,5.275 8.334,5.14 7.084,5.14 5.834,5.14 5.692,4.583 5.692,3.613 5.692,2.638 5.554,0.14 5.554,-1.116 L 0.834,-0.977 0,0"
             style="fill:#ffffff;fill-opacity:1;fill-rule:evenodd;stroke:none"
             id="path3084"
             inkscape:connector-curvature="0" /></g><g
           id="g3086"
           transform="translate(348.7822,594.374)"><path
             d="M 0,0 C -1.249,-1.112 -1.945,-1.942 -0.137,-2.5 L 1.942,-3.058 0.97,-6.944 c -1.663,0.415 -10.833,2.638 -12.08,3.056 l 0.967,4.028 1.673,-0.28 c 0.97,-0.135 2.077,0.28 3.329,1.532 2.087,2.22 9.17,8.193 12.085,10.692 1.389,-0.414 4.171,-1.111 5.417,-1.53 0.282,-1.527 2.502,-11.108 3.06,-13.472 0.551,-2.359 0.412,-3.75 2.22,-4.442 l 1.67,-0.557 -1.254,-4.031 C 15.7,-11.39 6.111,-8.335 4.309,-7.777 l 0.832,3.471 1.666,-0.279 c 1.389,-0.418 1.11,1.667 0.835,2.503 L 0,0"
             style="fill:#ffffff;fill-opacity:1;fill-rule:evenodd;stroke:none"
             id="path3088"
             inkscape:connector-curvature="0" /></g><g
           id="g3090"
           transform="translate(351.7012,596.1802)"><path
             d="M 0,0 C 1.11,-0.275 3.053,-0.693 3.748,-0.833 4.307,-1.112 4.583,-0.833 4.444,0 4.307,0.696 3.888,2.917 3.748,3.61 3.608,4.306 3.332,4.583 2.636,4.167 1.803,3.335 0.277,1.946 -0.558,1.113 -1.111,0.556 -1.111,0.277 0,0"
             style="fill:#ffffff;fill-opacity:1;fill-rule:evenodd;stroke:none"
             id="path3092"
             inkscape:connector-curvature="0" /></g><g
           id="g3094"
           transform="translate(463.6572,533.2578)"><path
             d="m 0,0 c -1.109,1.109 -2.638,0.554 -3.471,-0.418 -0.971,-0.832 -3.198,-3.474 -4.861,-4.724 -1.528,-1.251 -6.67,-4.026 -14.17,3.196 -7.362,7.361 -3.193,13.473 -1.946,14.584 1.11,1.254 2.777,3.611 3.752,4.585 0.833,0.833 0.554,2.225 -0.418,3.333 l -0.831,0.975 2.777,3.19 c 1.804,-1.94 10.28,-10.415 11.389,-11.667 L -10.695,10 l -1.666,1.527 c -1.113,1.111 -2.364,0.696 -3.338,-0.279 -0.83,-1.108 -2.776,-2.915 -3.608,-3.89 -0.835,-1.108 -1.667,-3.333 0.832,-6.387 3.473,-4.167 7.085,-2.777 8.196,-1.668 1.114,0.972 2.226,2.503 3.61,3.753 1.394,1.248 0.417,2.638 -0.414,3.611 l -1.249,1.248 2.777,3.193 C -4.442,10 2.499,3.333 4.167,1.388 L 1.39,-1.39 0,0"
             style="fill:#ffffff;fill-opacity:1;fill-rule:evenodd;stroke:none"
             id="path3096"
             inkscape:connector-curvature="0" /></g><g
           id="g3098"
           transform="translate(488.9375,436.9932)"><path
             d="M 0,0 C -0.275,1.112 -0.971,4.862 -1.25,6.113 0,7.084 8.197,14.032 11.114,16.53 c 1.108,0.975 1.527,2.084 1.387,2.919 l -0.14,1.387 3.892,0.696 c 0.418,-1.804 2.78,-13.475 2.92,-14.864 L 15.006,5.976 14.866,7.084 C 14.45,8.195 13.336,8.612 11.942,7.782 10.557,6.808 9.03,5.42 7.779,4.583 5.559,3.056 5.692,2.498 8.472,1.668 9.724,1.249 13.057,0.556 14.309,0.14 c 1.252,-0.28 1.67,0.829 1.39,2.086 l -0.138,1.248 4.168,0.697 c 0.274,-1.532 2.08,-10.28 2.219,-11.813 l -4.306,-0.554 -0.279,1.392 C 17.086,-5.417 15.421,-4.582 13.75,-4.029 12.089,-3.472 1.944,-0.558 0,0"
             style="fill:#ffffff;fill-opacity:1;fill-rule:evenodd;stroke:none"
             id="path3100"
             inkscape:connector-curvature="0" /></g><g
           id="g3102"
           transform="translate(432.958,250.3008)"><path
             d="m 0,0 c -0.692,-0.418 -1.803,0 -3.472,0.141 -1.525,0.279 -5.417,0.972 -7.364,1.531 -2.079,0.555 -2.358,3.055 -1.386,3.609 0.418,0.416 1.386,1.25 2.223,1.803 l -2.362,3.613 C -13.753,9.869 -24.307,2.227 -25.834,1.113 l 2.5,-3.609 1.388,1.111 c 1.252,0.834 2.222,1.108 3.057,0.139 0.972,-1.25 0.83,-2.641 0.693,-4.166 -0.278,-1.531 -0.416,-3.477 -0.693,-5.143 -0.417,-1.806 -0.417,-2.916 -1.11,-3.607 l -0.975,-0.699 2.638,-3.75 c 1.529,1.113 7.226,5.556 8.337,6.25 l -2.362,3.199 c -1.806,-1.254 -2.92,0.555 -2.634,1.801 0.133,1.113 0.269,2.363 0.411,3.338 1.669,0 3.332,-0.141 4.585,-0.42 1.11,-0.139 2.357,-0.969 1.248,-2.223 l -1.248,-0.971 2.218,-3.056 c 3.199,2.222 9.587,7.088 11.536,8.336 L 1.11,0.699 0,0"
             style="fill:#ffffff;fill-opacity:1;fill-rule:evenodd;stroke:none"
             id="path3104"
             inkscape:connector-curvature="0" /></g><g
           id="g3106"
           transform="translate(119.5854,372.6816)"><path
             d="M 0,0 C -0.279,1.389 -1.248,1.941 -2.917,1.941 -4.58,1.805 -8.471,0.973 -9.999,0.693 c -1.526,-0.275 -1.669,-1.531 -1.669,-2.781 l 0.418,-1.943 -4.165,-0.555 c -0.279,1.531 -3.056,25.281 -3.335,26.809 0.971,0 6.25,0.558 7.64,0.836 l 0.275,-3.612 -1.805,-0.279 c -1.806,-0.418 -1.667,-1.389 -1.387,-3.611 0.139,-1.391 0.416,-4.448 0.692,-5.838 l 0.139,-2.078 4.585,0.693 -0.279,2.223 c -0.275,1.109 -0.418,1.806 -1.527,1.945 l -1.108,0 -0.419,4.021 7.779,1.118 0.277,-4.17 -1.11,-0.141 c -0.835,-0.41 -0.973,-0.967 -0.835,-2.635 l 0.277,-1.943 4.724,0.689 -0.139,2.086 c -0.14,1.254 -0.556,4.866 -0.833,6.114 -0.14,1.667 -0.555,2.915 -2.361,2.775 l -2.085,-0.139 -0.277,3.612 c 1.529,0.278 5.835,0.697 7.362,0.973 L 4.585,-1.809 0.558,-2.363 0,0"
             style="fill:#ffffff;fill-opacity:1;fill-rule:evenodd;stroke:none"
             id="path3108"
             inkscape:connector-curvature="0" /></g><g
           id="g3110"
           transform="translate(277.6626,594.374)"><path
             d="M 0,0 C 1.665,0.277 1.944,1.806 1.944,3.335 1.804,4.863 1.25,8.335 1.111,9.585 0.971,10.973 0,11.807 -1.806,11.67 l -1.667,-0.14 -0.556,4.164 c 2.083,0.42 13.198,1.949 15.977,2.223 L 12.5,13.613 10.277,13.337 C 9.029,13.197 8.196,12.084 8.471,10.419 8.75,8.752 9.029,5.694 9.304,3.752 9.448,1.806 10.696,1.667 11.948,1.806 l 2.079,0.277 0.698,-4.304 C 11.39,-2.639 1.804,-3.748 -1.806,-4.585 L -2.362,-0.417 0,0"
             style="fill:#ffffff;fill-opacity:1;fill-rule:evenodd;stroke:none"
             id="path3112"
             inkscape:connector-curvature="0" /></g><g
           id="g3114"
           transform="translate(383.3721,593.6807)"><path
             d="M 0,0 C 1.525,-0.971 1.665,-1.946 0.832,-3.613 0,-5.14 -1.112,-7.223 -1.947,-8.75 c -0.973,-1.388 -1.668,-2.225 -3.332,-1.667 l -2.086,0.969 -2.222,-4.165 c 1.806,-0.696 10.279,-5.002 12.364,-6.113 l 2.083,3.89 -1.944,0.973 c -1.391,0.833 -1.81,2.221 -1.111,3.471 0.553,1.114 1.943,3.337 2.637,4.446 1.666,-3.75 6.393,-12.917 7.5,-15.417 1.113,-2.504 1.808,-3.196 2.918,-3.891 l 2.084,-1.109 c 0.698,1.388 4.999,9.444 6.39,11.944 0.973,1.806 2.224,2.086 3.332,1.389 l 1.805,-0.972 1.949,3.887 c -1.251,0.698 -10.141,5.417 -11.526,6.252 l -1.95,-3.887 1.251,-0.832 c 1.11,-0.556 1.945,-1.672 1.247,-3.199 -0.69,-1.528 -1.386,-2.498 -2.219,-3.748 C 14.86,-11.944 12.08,-5.975 11.112,-3.752 10.138,-1.667 9.305,0 6.943,1.112 4.58,2.36 1.106,4.306 0,4.862 L -1.947,1.25 0,0"
             style="fill:#ffffff;fill-opacity:1;fill-rule:evenodd;stroke:none"
             id="path3116"
             inkscape:connector-curvature="0" /></g><g
           id="g3118"
           transform="translate(471.5742,521.1724)"><path
             d="M 0,0 C 0.693,-1.668 0.418,-2.641 -1.247,-3.473 -2.777,-4.448 -4.72,-5.697 -6.249,-6.391 -7.777,-7.223 -8.887,-7.5 -9.863,-6.112 l -1.385,1.944 -3.892,-2.361 c 1.113,-1.669 5.972,-9.725 7.223,-11.808 l 3.75,2.223 -1.107,1.944 c -0.696,1.389 -0.283,2.777 0.83,3.475 1.11,0.693 3.47,1.806 4.586,2.36 -0.419,-4.027 -1.249,-14.31 -1.668,-17.083 -0.416,-2.781 -0.138,-3.613 0.419,-4.725 L 0,-32.228 c 1.391,0.833 9.308,5.418 11.808,6.81 1.668,0.969 2.917,0.554 3.612,-0.559 l 0.973,-1.806 3.75,2.221 c -0.835,1.252 -5.837,10.002 -6.667,11.531 l -3.609,-2.362 0.694,-1.388 c 0.549,-1.112 0.689,-2.362 -0.694,-3.335 -1.392,-0.971 -2.505,-1.389 -3.893,-2.082 0.419,5.14 1.111,11.805 1.528,14.03 0.276,2.36 0.416,4.167 -0.97,6.387 C 5.143,-0.556 3.193,3.056 2.641,4.027 L -0.974,2.08 0,0"
             style="fill:#ffffff;fill-opacity:1;fill-rule:evenodd;stroke:none"
             id="path3120"
             inkscape:connector-curvature="0" /></g><g
           id="g3122"
           transform="translate(481.2979,476.7212)"><path
             d="m 0,0 c 0.696,-1.527 2.222,-1.527 3.612,-1.109 1.527,0.417 4.86,1.806 5.972,2.219 1.252,0.417 1.947,1.671 1.39,3.198 l -0.415,1.804 3.889,1.39 C 15.144,5.556 19.311,-5 20.141,-7.502 l -4.03,-1.525 -0.828,2.081 C 14.864,-5.698 13.615,-5.14 12.082,-5.837 10.559,-6.529 7.64,-7.502 5.836,-8.196 4.029,-8.89 4.029,-10.14 4.582,-11.252 l 0.696,-1.946 -4.027,-1.663 C 0,-11.806 -3.191,-2.638 -4.721,0.697 L -0.973,2.225 0,0"
             style="fill:#ffffff;fill-opacity:1;fill-rule:evenodd;stroke:none"
             id="path3124"
             inkscape:connector-curvature="0" /></g><g
           id="g3126"
           transform="translate(506.8584,417.8247)"><path
             d="m 0,0 c -0.14,-1.248 -0.558,-2.501 -2.087,-2.501 -1.525,0 -5.553,-0.279 -7.083,0 -1.663,0.137 -2.501,0.974 -2.636,2.361 l 0,2.5 -4.308,0.14 -0.556,-26.948 c 1.528,0 5.837,-0.279 7.36,-0.279 l 0.28,3.613 -2.082,0.138 c -1.668,0.279 -1.948,1.527 -1.948,3.201 0.14,1.243 0.28,4.857 0.28,6.105 l 0.276,2.224 4.725,-0.276 -0.139,-1.948 c 0,-1.663 -0.279,-2.221 -1.112,-2.361 l -1.112,0 -0.275,-4.03 7.638,-0.272 0.279,4.027 -1.112,0 c -0.973,0.415 -1.111,1.109 -1.111,2.361 l 0,2.084 4.583,0 -0.139,-2.084 c 0,-1.388 -0.137,-4.445 -0.279,-5.83 -0.137,-2.23 -0.137,-3.201 -1.942,-3.339 l -1.806,0 -0.417,-3.473 c 1.53,-0.14 6.805,-0.419 7.78,-0.552 -0.14,1.66 1.108,25.418 1.108,27.084 L 0.14,1.945 0,0"
             style="fill:#ffffff;fill-opacity:1;fill-rule:evenodd;stroke:none"
             id="path3128"
             inkscape:connector-curvature="0" /></g><g
           id="g3130"
           transform="translate(494.7734,367.541)"><path
             d="m 0,0 c -0.277,-1.248 -0.558,-2.363 -1.114,-5 -0.415,-2.643 -2.219,-2.363 -4.578,-1.945 -2.366,0.42 -4.865,0.558 -5.839,-4.862 -1.108,-5.974 2.226,-5.834 4.31,-6.252 2.217,-0.418 2.357,1.391 -0.419,1.807 -1.385,0.279 -1.665,2.777 0.28,2.361 3.468,-0.558 4.997,-0.142 6.525,1.389 0.277,-2.502 1.528,-4.582 4.164,-5 2.229,-0.418 5.285,0.971 6.396,5.695 1.246,5.282 3.612,14.86 4.442,19.584 L 14.305,9.168 10.692,9.721 10.417,8.055 C 9.998,6.391 8.892,5.559 7.221,5.834 5.558,6.113 2.223,6.668 0.693,7.082 -0.835,7.357 -1.665,8.473 -1.394,10.418 l 0.28,1.666 -4.303,0.832 C -5.836,10.418 -8.475,0 -8.894,-1.945 l 4.309,-0.83 0.418,1.668 C -3.333,1.109 -1.665,0.416 0,0"
             style="fill:#ffffff;fill-opacity:1;fill-rule:evenodd;stroke:none"
             id="path3132"
             inkscape:connector-curvature="0" /></g><g
           id="g3134"
           transform="translate(498.6611,366.7031)"><path
             d="M 0,0 3.612,-0.828 C 3.333,-2.359 2.917,-4.719 2.498,-6.805 2.219,-8.051 1.528,-9.164 0,-8.746 c -1.39,0.275 -1.526,1.107 -1.252,2.359 0.14,1.25 0.693,3.75 1.252,6.387"
             style="fill:#ffffff;fill-opacity:1;fill-rule:evenodd;stroke:none"
             id="path3136"
             inkscape:connector-curvature="0" /></g><g
           id="g3138"
           transform="translate(488.6621,313.9258)"><path
             d="m 0,0 -1.528,-2.504 -1.526,0.973 C -4.028,-1.115 -4.445,-0.695 -5.838,0 l -1.107,0.83 1.802,3.053 0.977,-0.276 c 2.08,-0.275 4.029,2.92 5.413,5.143 1.392,2.219 1.947,5 0.419,5.834 -1.391,0.83 -4.029,-2.645 -5.972,-6.252 -1.945,-3.613 -6.117,-7.643 -10.002,-5.141 -4.306,2.778 -3.615,7.778 -1.947,11.393 1.808,4.027 3.752,5.693 5.003,6.803 1.111,1.109 1.111,1.668 0.975,2.084 l -0.558,0.974 1.249,2.637 1.249,-0.416 c 0.973,-0.553 1.81,-0.971 3.474,-1.666 l 1.39,-0.836 -1.53,-2.777 -1.803,0 c -1.807,0.142 -3.889,-3.055 -5.557,-6.25 -1.669,-3.198 -1.111,-4.998 0.138,-5.416 1.111,-0.559 2.639,1.248 4.861,5.693 2.221,4.443 5.836,8.336 10.419,5.699 C 7.64,18.611 6.391,12.914 4.857,9.441 3.194,5.828 0.968,3.75 0.275,3.191 -0.416,2.637 -0.835,2.08 -0.558,1.387 L 0,0"
             style="fill:#ffffff;fill-opacity:1;fill-rule:evenodd;stroke:none"
             id="path3140"
             inkscape:connector-curvature="0" /></g><g
           id="g3142"
           transform="translate(465.6045,306.8379)"><path
             d="m 0,0 c -0.977,-1.525 -0.142,-2.641 1.11,-3.611 1.11,-0.975 4.025,-2.918 5.138,-3.75 0.973,-0.696 2.362,-0.559 3.47,0.697 l 1.115,1.525 3.472,-2.502 c -1.25,-1.666 -7.502,-10.968 -9.17,-13.193 l -3.472,2.357 1.252,1.809 c 0.693,1.111 0.418,2.498 -0.973,3.33 -1.39,0.977 -3.889,2.781 -5.417,3.893 -1.668,1.109 -2.64,0.418 -3.334,-0.692 l -1.249,-1.674 -3.615,2.366 c 1.946,2.781 7.504,10.556 9.308,13.752 L 1.11,1.945 0,0"
             style="fill:#ffffff;fill-opacity:1;fill-rule:evenodd;stroke:none"
             id="path3144"
             inkscape:connector-curvature="0" /></g><g
           id="g3146"
           transform="translate(457.9629,280.3047)"><path
             d="M 0,0 C 1.112,-1.107 3.334,-3.051 4.167,-3.889 L 5.555,-5.414 3.89,-7.082 C 0.555,-10.555 -7.362,-18.889 -11.392,-22.779 l -1.668,-1.528 -1.523,1.666 c -1.114,1.11 -1.668,1.53 -2.504,2.506 l -1.388,1.524 3.196,3.052 1.385,-1.521 c 1.253,-0.977 2.502,0.277 3.473,1.246 0.834,0.973 0.974,1.529 0.144,2.363 -0.835,0.834 -4.725,4.584 -5.974,5.696 -1.254,1.25 -2.084,0.552 -3.194,-0.418 l -1.392,-1.114 -2.775,2.922 11.527,11.528 2.915,-3.055 -1.803,-1.668 c -1.112,-1.387 -0.419,-2.641 0.968,-3.891 1.254,-1.384 3.06,-2.914 5.004,-4.859 0.97,-1.109 2.084,0.137 2.777,0.828 1.114,1.256 1.249,1.947 0.556,2.924 L -3.055,-3.191 0,0"
             style="fill:#ffffff;fill-opacity:1;fill-rule:evenodd;stroke:none"
             id="path3148"
             inkscape:connector-curvature="0" /></g><g
           id="g3150"
           transform="translate(109.7266,421.1572)"><path
             d="m 0,0 -3.752,0.14 c 0,1.527 0.139,4.029 0.139,6.112 0,1.388 0.555,2.5 2.082,2.361 C -0.14,8.474 0.137,7.64 0.137,6.391 0.137,5.14 0,2.642 0,0"
             style="fill:#ffffff;fill-opacity:1;fill-rule:evenodd;stroke:none"
             id="path3152"
             inkscape:connector-curvature="0" /></g><g
           id="g3154"
           transform="translate(242.1133,543.9819)"><path
             d="m 0,0 0,-3.385 2.221,-2.245 0,-10.02 6.765,0 0,2.254 2.222,0 0,-3.365 -1.145,-1.145 -13.395,0 -1.145,1.143 0,17.876 1.143,1.142 13.4,0 1.142,-1.144 0,-3.332 -2.222,0 L 8.986,0 0,0 z"
             style="fill:#ffffff;fill-opacity:1;fill-rule:nonzero;stroke:none"
             id="path3156"
             inkscape:connector-curvature="0" /></g><g
           id="g3158"
           transform="translate(265.5386,543.9819)"><path
             d="m 0,0 -6.731,0 0,-15.65 9.02,0 0,10.053 L 0,-3.318 0,0 z m 5.587,2.255 1.144,-1.142 0,-17.876 -1.144,-1.143 -13.396,0 -1.144,1.143 0,17.876 1.144,1.142 13.396,0 z"
             style="fill:#ffffff;fill-opacity:1;fill-rule:nonzero;stroke:none"
             id="path3160"
             inkscape:connector-curvature="0" /></g><g
           id="g3162"
           transform="translate(279.9775,543.9819)"><path
             d="m 0,0 0,-3.42 2.188,-2.18 0,-11.199 -1.111,-1.107 -4.443,0 -1.144,1.143 0,17.876 1.146,1.142 10.077,0 1.146,-1.11 1.142,1.11 7.762,0 1.142,-1.142 0,-17.91 -1.11,-1.109 -2.222,0 -1.11,1.107 0,16.799 -4.51,0 0,-17.906 -2.222,0 L 6.731,0 0,0 z"
             style="fill:#ffffff;fill-opacity:1;fill-rule:nonzero;stroke:none"
             id="path3164"
             inkscape:connector-curvature="0" /></g><path
           d="m 313.028,543.982 -6.765,0 0,-4.442 6.765,0 0,4.442 z m -5.654,-17.906 -4.477,0 -1.11,1.143 0,17.876 1.144,1.142 11.174,0 1.145,-1.144 0,-6.664 -1.145,-1.145 -5.586,0 0,-10.067 -1.145,-1.141 z"
           style="fill:#ffffff;fill-opacity:1;fill-rule:nonzero;stroke:none"
           id="path3166"
           inkscape:connector-curvature="0" /><g
           id="g3168"
           transform="translate(333.7275,527.2188)"><path
             d="m 0,0 -1.145,-1.143 -13.395,0 -1.145,1.143 0,17.876 1.179,1.143 2.154,0 1.144,-1.143 0,-4.468 2.222,-2.217 0,-10.078 6.764,0 0,17.906 2.222,0 L 0,0 z"
             style="fill:#ffffff;fill-opacity:1;fill-rule:nonzero;stroke:none"
             id="path3170"
             inkscape:connector-curvature="0" /></g><g
           id="g3172"
           transform="translate(349.6133,543.9819)"><path
             d="m 0,0 -4.443,0 0,-3.387 2.221,-2.213 0,-11.165 -1.144,-1.141 -4.409,0 -1.144,1.141 0,16.765 -4.544,0 0,2.255 L 0,2.255 0,0 z"
             style="fill:#ffffff;fill-opacity:1;fill-rule:nonzero;stroke:none"
             id="path3174"
             inkscape:connector-curvature="0" /></g><g
           id="g3176"
           transform="translate(356.748,543.9819)"><path
             d="m 0,0 0,-4.442 8.952,0 0,-2.256 -6.697,0 0,-8.952 6.697,0 0,-2.256 -12.284,0 -1.145,1.143 0,17.876 1.145,1.142 12.284,0 L 8.952,0 0,0 z"
             style="fill:#ffffff;fill-opacity:1;fill-rule:nonzero;stroke:none"
             id="path3178"
             inkscape:connector-curvature="0" /></g><path
           d="m 380.375,543.982 -6.731,0 0,-4.442 6.731,0 0,4.442 z m 2.221,-6.698 -6.765,0 0,-10.067 -1.144,-1.141 -4.41,0 -1.144,1.143 0,17.876 1.144,1.142 11.175,0 1.144,-1.142 0,-4.503 2.221,-2.184 0,-12.332 -2.221,0 0,11.208 z"
           style="fill:#ffffff;fill-opacity:1;fill-rule:nonzero;stroke:none"
           id="path3180"
           inkscape:connector-curvature="0" /><g
           id="g3182"
           transform="translate(280.5327,512.1162)"><path
             d="m 0,0 0,-3.385 2.221,-2.245 0,-10.02 6.765,0 0,2.254 2.222,0 0,-3.365 -1.145,-1.145 -13.395,0 -1.145,1.143 0,17.876 1.143,1.142 13.4,0 1.142,-1.144 0,-3.332 -2.222,0 L 8.986,0 0,0 z"
             style="fill:#ffffff;fill-opacity:1;fill-rule:nonzero;stroke:none"
             id="path3184"
             inkscape:connector-curvature="0" /></g><g
           id="g3186"
           transform="translate(308.4346,496.4658)"><path
             d="m 0,0 0,-2.255 -12.285,0 -1.145,1.142 0,17.876 1.145,1.143 2.221,0 1.111,-1.109 0,-4.502 2.221,-2.217 L -6.732,0 0,0 z"
             style="fill:#ffffff;fill-opacity:1;fill-rule:nonzero;stroke:none"
             id="path3188"
             inkscape:connector-curvature="0" /></g><g
           id="g3190"
           transform="translate(327.1475,495.353)"><path
             d="m 0,0 -1.145,-1.143 -13.395,0 -1.145,1.143 0,17.876 1.179,1.143 2.154,0 1.144,-1.143 0,-4.468 2.222,-2.217 0,-10.078 6.764,0 0,17.906 2.222,0 L 0,0 z"
             style="fill:#ffffff;fill-opacity:1;fill-rule:nonzero;stroke:none"
             id="path3192"
             inkscape:connector-curvature="0" /></g><path
           d="m 343.673,505.452 -6.799,0 0,-8.986 6.799,0 0,8.986 z m -9.021,2.222 6.765,0 0,4.51 -6.765,0 0,-4.51 z m 11.208,-12.321 -1.144,-1.143 -13.396,0 -1.144,1.143 0,17.876 1.144,1.143 11.208,0 1.145,-1.143 0,-4.469 2.187,-2.218 0,-11.189 z"
           style="fill:#ffffff;fill-opacity:1;fill-rule:nonzero;stroke:none"
           id="path3194"
           inkscape:connector-curvature="0" /><g
           id="g3196"
           transform="translate(268.6821,460.7153)"><path
             d="m 0,0 c 1.814,-11.165 2.225,-23.734 2.163,-36.776 -8.369,0.861 -16.26,0.618 -25.961,2.163 2.653,9.966 3.548,21.692 6.49,31.368 l 1.624,-0.541 -0.543,1.623 c 4.712,0.697 12.229,-1.411 15.145,1.081 L 0,-1.082 0,0 z"
             style="fill:#ffffff;fill-opacity:1;fill-rule:evenodd;stroke:none"
             id="path3198"
             inkscape:connector-curvature="0" /></g><g
           id="g3200"
           transform="translate(353.0537,473.6958)"><path
             d="M 0,0 C -0.472,-1.332 -1.386,-2.221 -3.244,-2.163 -2.772,-0.833 -1.86,0.059 0,0"
             style="fill:#ffffff;fill-opacity:1;fill-rule:evenodd;stroke:none"
             id="path3202"
             inkscape:connector-curvature="0" /></g><g
           id="g3204"
           transform="translate(388.748,473.6958)"><path
             d="M 0,0 2.163,0 C 1.592,-0.87 1.035,-1.756 1.082,-3.246 -1.166,-2.639 -1.21,-1.558 0,0"
             style="fill:#ffffff;fill-opacity:1;fill-rule:evenodd;stroke:none"
             id="path3206"
             inkscape:connector-curvature="0" /></g><g
           id="g3208"
           transform="translate(403.8916,473.6958)"><path
             d="M 0,0 C -1.152,-1.008 -0.336,-3.988 -3.244,-3.246 -3.44,-0.886 -2.358,0.196 0,0"
             style="fill:#ffffff;fill-opacity:1;fill-rule:evenodd;stroke:none"
             id="path3210"
             inkscape:connector-curvature="0" /></g><g
           id="g3212"
           transform="translate(420.1201,473.6958)"><path
             d="M 0,0 C 3.775,0.967 1.846,-3.529 1.081,-4.328 -0.39,-3.99 0.182,-1.618 0,0"
             style="fill:#ffffff;fill-opacity:1;fill-rule:evenodd;stroke:none"
             id="path3214"
             inkscape:connector-curvature="0" /></g><g
           id="g3216"
           transform="translate(317.3564,465.0425)"><path
             d="M 0,0 C -0.304,1.747 1.023,1.863 1.082,3.245 3.182,3.673 2.663,-1.682 0,0"
             style="fill:#ffffff;fill-opacity:1;fill-rule:evenodd;stroke:none"
             id="path3218"
             inkscape:connector-curvature="0" /></g><g
           id="g3220"
           transform="translate(356.2988,467.2056)"><path
             d="M 0,0 C 1.839,0.399 2.042,-0.843 2.163,-2.163 1.244,-1.965 1.142,-2.583 1.081,-3.246 -0.187,-3.07 0.17,-1.271 0,0"
             style="fill:#ffffff;fill-opacity:1;fill-rule:evenodd;stroke:none"
             id="path3222"
             inkscape:connector-curvature="0" /></g><g
           id="g3224"
           transform="translate(362.7881,466.124)"><path
             d="M 0,0 C 1.636,3.82 2.052,-1.992 1.084,-2.165 0.443,-2.275 -0.274,-0.645 0,0"
             style="fill:#ffffff;fill-opacity:1;fill-rule:evenodd;stroke:none"
             id="path3226"
             inkscape:connector-curvature="0" /></g><g
           id="g3228"
           transform="translate(369.2793,467.2056)"><path
             d="m 0,0 c 2.248,-0.604 2.292,-1.686 1.081,-3.246 l -2.163,0 C -1.389,-1.498 -0.059,-1.382 0,0"
             style="fill:#ffffff;fill-opacity:1;fill-rule:evenodd;stroke:none"
             id="path3230"
             inkscape:connector-curvature="0" /></g><g
           id="g3232"
           transform="translate(394.1582,467.2056)"><path
             d="M 0,0 C 4.957,-0.721 -0.87,-6.547 0,0"
             style="fill:#ffffff;fill-opacity:1;fill-rule:evenodd;stroke:none"
             id="path3234"
             inkscape:connector-curvature="0" /></g><g
           id="g3236"
           transform="translate(407.1387,466.124)"><path
             d="M 0,0 C 3.155,1.591 3.155,-4.833 0,-3.246 L 0,0 z"
             style="fill:#ffffff;fill-opacity:1;fill-rule:evenodd;stroke:none"
             id="path3238"
             inkscape:connector-curvature="0" /></g><g
           id="g3240"
           transform="translate(335.748,460.7153)"><path
             d="M 0,0 C 2.307,0.507 2.06,-1.544 2.162,-3.245 1.286,-3.041 1.084,-2.159 0,-2.163 L 0,0 z"
             style="fill:#ffffff;fill-opacity:1;fill-rule:evenodd;stroke:none"
             id="path3242"
             inkscape:connector-curvature="0" /></g><g
           id="g3244"
           transform="translate(342.2363,460.7153)"><path
             d="M 0,0 C 3.154,1.591 3.154,-4.833 0,-3.245 L 0,0 z"
             style="fill:#ffffff;fill-opacity:1;fill-rule:evenodd;stroke:none"
             id="path3246"
             inkscape:connector-curvature="0" /></g><g
           id="g3248"
           transform="translate(374.6865,459.6338)"><path
             d="M 0,0 2.164,0 C 2.668,-2.308 0.62,-2.06 -1.082,-2.163 -0.875,-1.287 0.003,-1.083 0,0"
             style="fill:#ffffff;fill-opacity:1;fill-rule:evenodd;stroke:none"
             id="path3250"
             inkscape:connector-curvature="0" /></g><g
           id="g3252"
           transform="translate(382.2598,456.3877)"><path
             d="M 0,0 C -5.146,2.659 3.026,5.57 0,0"
             style="fill:#ffffff;fill-opacity:1;fill-rule:evenodd;stroke:none"
             id="path3254"
             inkscape:connector-curvature="0" /></g><g
           id="g3256"
           transform="translate(412.5469,458.5522)"><path
             d="M 0,0 C 3.154,1.591 3.154,-4.834 0,-3.246 L 0,0 z"
             style="fill:#ffffff;fill-opacity:1;fill-rule:evenodd;stroke:none"
             id="path3258"
             inkscape:connector-curvature="0" /></g><g
           id="g3260"
           transform="translate(416.8721,445.5718)"><path
             d="M 0,0 C 3.157,1.591 3.157,-4.833 0,-3.246 L 0,0 z"
             style="fill:#ffffff;fill-opacity:1;fill-rule:evenodd;stroke:none"
             id="path3262"
             inkscape:connector-curvature="0" /></g><g
           id="g3264"
           transform="translate(429.8525,444.4902)"><path
             d="M 0,0 C 3.157,1.591 3.157,-4.833 0,-3.246 L 0,0 z"
             style="fill:#ffffff;fill-opacity:1;fill-rule:evenodd;stroke:none"
             id="path3266"
             inkscape:connector-curvature="0" /></g><g
           id="g3268"
           transform="translate(449.3252,444.4902)"><path
             d="M 0,0 C 2.506,-0.302 2.486,-2.889 1.081,-4.327 -0.389,-3.991 0.185,-1.618 0,0"
             style="fill:#ffffff;fill-opacity:1;fill-rule:evenodd;stroke:none"
             id="path3270"
             inkscape:connector-curvature="0" /></g><g
           id="g3272"
           transform="translate(346.5625,442.3257)"><path
             d="M 0,0 C 3.157,1.591 3.157,-4.833 0,-3.244 L 0,0 z"
             style="fill:#ffffff;fill-opacity:1;fill-rule:evenodd;stroke:none"
             id="path3274"
             inkscape:connector-curvature="0" /></g><g
           id="g3276"
           transform="translate(384.4229,440.1631)"><path
             d="M 0,0 C 3.154,1.591 3.154,-4.833 0,-3.244 L 0,0 z"
             style="fill:#ffffff;fill-opacity:1;fill-rule:evenodd;stroke:none"
             id="path3278"
             inkscape:connector-curvature="0" /></g><path
           d="m 390.911,439.082 2.166,0 0,-2.162 -2.166,0 0,2.162 z"
           style="fill:#ffffff;fill-opacity:1;fill-rule:evenodd;stroke:none"
           id="path3280"
           inkscape:connector-curvature="0" /><g
           id="g3282"
           transform="translate(397.4033,439.0815)"><path
             d="M 0,0 C 3.154,1.591 3.154,-4.833 0,-3.244 L 0,0 z"
             style="fill:#ffffff;fill-opacity:1;fill-rule:evenodd;stroke:none"
             id="path3284"
             inkscape:connector-curvature="0" /></g><g
           id="g3286"
           transform="translate(423.3643,438.001)"><path
             d="M 0,0 C 3.154,1.59 3.154,-4.834 0,-3.246 L 0,0 z"
             style="fill:#ffffff;fill-opacity:1;fill-rule:evenodd;stroke:none"
             id="path3288"
             inkscape:connector-curvature="0" /></g><g
           id="g3290"
           transform="translate(436.3447,436.9194)"><path
             d="m 0,0 2.163,0 c -0.665,-0.962 -1.309,-1.935 0,-2.164 -0.794,-1.926 -1.967,-0.155 -3.244,0 C -0.878,-1.288 0.003,-1.086 0,0"
             style="fill:#ffffff;fill-opacity:1;fill-rule:evenodd;stroke:none"
             id="path3292"
             inkscape:connector-curvature="0" /></g><g
           id="g3294"
           transform="translate(400.6475,430.4292)"><path
             d="M 0,0 C 3.154,1.59 3.154,-4.835 0,-3.246 L 0,0 z"
             style="fill:#ffffff;fill-opacity:1;fill-rule:evenodd;stroke:none"
             id="path3296"
             inkscape:connector-curvature="0" /></g><g
           id="g3298"
           transform="translate(435.2637,428.2661)"><path
             d="M 0,0 C -1.156,-1.01 -0.34,-3.991 -3.248,-3.246 -3.443,-0.885 -2.362,0.196 0,0"
             style="fill:#ffffff;fill-opacity:1;fill-rule:evenodd;stroke:none"
             id="path3300"
             inkscape:connector-curvature="0" /></g><g
           id="g3302"
           transform="translate(368.1973,426.1021)"><path
             d="M 0,0 C 3.154,1.59 3.154,-4.834 0,-3.245 L 0,0 z"
             style="fill:#ffffff;fill-opacity:1;fill-rule:evenodd;stroke:none"
             id="path3304"
             inkscape:connector-curvature="0" /></g><g
           id="g3306"
           transform="translate(374.6865,425.0205)"><path
             d="M 0,0 C 3.157,1.59 3.157,-4.834 0,-3.245 L 0,0 z"
             style="fill:#ffffff;fill-opacity:1;fill-rule:evenodd;stroke:none"
             id="path3308"
             inkscape:connector-curvature="0" /></g><g
           id="g3310"
           transform="translate(381.1777,425.0205)"><path
             d="M 0,0 C 3.154,1.59 3.154,-4.834 0,-3.245 L 0,0 z"
             style="fill:#ffffff;fill-opacity:1;fill-rule:evenodd;stroke:none"
             id="path3312"
             inkscape:connector-curvature="0" /></g><g
           id="g3314"
           transform="translate(406.0576,422.8574)"><path
             d="M 0,0 C 3.154,1.59 3.154,-4.836 0,-3.246 L 0,0 z"
             style="fill:#ffffff;fill-opacity:1;fill-rule:evenodd;stroke:none"
             id="path3316"
             inkscape:connector-curvature="0" /></g><g
           id="g3318"
           transform="translate(419.0352,421.7759)"><path
             d="M 0,0 C 3.157,1.589 3.157,-4.836 0,-3.246 L 0,0 z"
             style="fill:#ffffff;fill-opacity:1;fill-rule:evenodd;stroke:none"
             id="path3320"
             inkscape:connector-curvature="0" /></g><g
           id="g3322"
           transform="translate(263.2734,409.877)"><path
             d="M 0,0 0,3.245 C -4.939,2.774 -11.91,4.338 -15.144,2.163 l -1.622,0.541 0.541,-1.622 c -30.191,-4.817 -21.147,-59.66 10.816,-51.922 l 1.081,0 0,1.082 c 0.922,0.197 1.021,-0.422 1.083,-1.082 C 27.389,-51.91 28.468,-2.386 2.163,2.163 2.256,0.629 2.342,-0.901 1.081,-1.082 L 1.081,0 0,0 z m -14.062,9.735 c 27.411,5.057 52.125,-19.03 41.104,-47.594 -6.505,-16.86 -27.822,-25.762 -45.432,-20.553 -24.446,7.234 -30.253,39.467 -17.306,56.249 4.97,6.44 12.264,10.171 21.634,11.898"
             style="fill:#ffffff;fill-opacity:1;fill-rule:evenodd;stroke:none"
             id="path3324"
             inkscape:connector-curvature="0" /></g><g
           id="g3326"
           transform="translate(386.585,417.4487)"><path
             d="M 0,0 C 3.155,1.59 3.155,-4.834 0,-3.245 L 0,0 z"
             style="fill:#ffffff;fill-opacity:1;fill-rule:evenodd;stroke:none"
             id="path3328"
             inkscape:connector-curvature="0" /></g><g
           id="g3330"
           transform="translate(393.0771,417.4487)"><path
             d="M 0,0 C 4.956,-0.722 -0.871,-6.548 0,0"
             style="fill:#ffffff;fill-opacity:1;fill-rule:evenodd;stroke:none"
             id="path3332"
             inkscape:connector-curvature="0" /></g><g
           id="g3334"
           transform="translate(424.4453,414.2036)"><path
             d="M 0,0 C 3.154,1.589 3.154,-4.835 0,-3.245 L 0,0 z"
             style="fill:#ffffff;fill-opacity:1;fill-rule:evenodd;stroke:none"
             id="path3336"
             inkscape:connector-curvature="0" /></g><g
           id="g3338"
           transform="translate(253.5386,406.6313)"><path
             d="M 0,0 C 3.154,1.59 3.154,-4.834 0,-3.245 L 0,0 z"
             style="fill:#ffffff;fill-opacity:1;fill-rule:evenodd;stroke:none"
             id="path3340"
             inkscape:connector-curvature="0" /></g><g
           id="g3342"
           transform="translate(429.8525,399.0596)"><path
             d="M 0,0 C 3.157,1.59 3.157,-4.835 0,-3.245 L 0,0 z"
             style="fill:#ffffff;fill-opacity:1;fill-rule:evenodd;stroke:none"
             id="path3344"
             inkscape:connector-curvature="0" /></g><path
           d="m 390.911,394.733 2.166,0 0,-2.163 -2.166,0 0,2.163 z"
           style="fill:#ffffff;fill-opacity:1;fill-rule:evenodd;stroke:none"
           id="path3346"
           inkscape:connector-curvature="0" /><g
           id="g3348"
           transform="translate(410.3838,393.6523)"><path
             d="M 0,0 C 3.998,-3.281 -3.285,-3.643 0,0"
             style="fill:#ffffff;fill-opacity:1;fill-rule:evenodd;stroke:none"
             id="path3350"
             inkscape:connector-curvature="0" /></g><g
           id="g3352"
           transform="translate(416.8721,392.5703)"><path
             d="m 0,0 c 2.1,0.429 1.581,-4.928 -1.081,-3.246 l 0,2.164 C -0.16,-1.281 -0.06,-0.661 0,0"
             style="fill:#ffffff;fill-opacity:1;fill-rule:evenodd;stroke:none"
             id="path3354"
             inkscape:connector-curvature="0" /></g><g
           id="g3356"
           transform="translate(383.3408,388.2441)"><path
             d="M 0,0 C 2.308,0.506 2.061,-1.547 2.163,-3.246 1.286,-3.041 1.085,-2.16 0,-2.164 L 0,0 z"
             style="fill:#ffffff;fill-opacity:1;fill-rule:evenodd;stroke:none"
             id="path3358"
             inkscape:connector-curvature="0" /></g><g
           id="g3360"
           transform="translate(422.2822,383.918)"><path
             d="M 0,0 C 1.84,0.396 2.04,-0.844 2.163,-2.166 1.242,-1.965 1.143,-2.588 1.082,-3.248 -0.186,-3.072 0.168,-1.275 0,0"
             style="fill:#ffffff;fill-opacity:1;fill-rule:evenodd;stroke:none"
             id="path3362"
             inkscape:connector-curvature="0" /></g><path
           d="m 273.008,379.588 2.165,0 0,-2.162 -2.165,0 0,2.162 z"
           style="fill:#ffffff;fill-opacity:1;fill-rule:evenodd;stroke:none"
           id="path3364"
           inkscape:connector-curvature="0" /><g
           id="g3366"
           transform="translate(319.5195,343.8945)"><path
             d="m 0,0 c -10.968,3.451 -20.107,8.736 -31.368,11.898 3.898,8.362 9.084,15.436 12.98,23.795 8.836,-7.031 18.823,-12.908 27.043,-20.55 l -1.082,0 0,-1.08 C 5.416,9.729 3.241,5.412 1.085,1.082 L -0.539,1.621 0,0 z"
             style="fill:#ffffff;fill-opacity:1;fill-rule:evenodd;stroke:none"
             id="path3368"
             inkscape:connector-curvature="0" /></g><g
           id="g3370"
           transform="translate(395.2402,379.5879)"><path
             d="M 0,0 C 2.308,0.508 2.06,-1.545 2.163,-3.244 1.285,-3.039 1.084,-2.16 0,-2.162 L 0,0 z"
             style="fill:#ffffff;fill-opacity:1;fill-rule:evenodd;stroke:none"
             id="path3372"
             inkscape:connector-curvature="0" /></g><g
           id="g3374"
           transform="translate(186.4731,353.627)"><path
             d="M 0,0 C 7.192,8.674 17.265,14.467 24.879,22.717 32.024,17.604 35.52,8.84 40.023,1.084 30.316,-3.631 21.459,-9.199 10.817,-12.977 l 0.541,1.622 -1.622,-0.541 C 6.731,-8.41 4.612,-4.041 1.081,-1.08 L 1.081,0 0,0 z"
             style="fill:#ffffff;fill-opacity:1;fill-rule:evenodd;stroke:none"
             id="path3376"
             inkscape:connector-curvature="0" /></g><g
           id="g3378"
           transform="translate(362.7881,376.3438)"><path
             d="M 0,0 C 2.31,0.508 2.06,-1.545 2.165,-3.244 1.287,-3.039 1.087,-2.16 0,-2.162 L 0,0 z"
             style="fill:#ffffff;fill-opacity:1;fill-rule:evenodd;stroke:none"
             id="path3380"
             inkscape:connector-curvature="0" /></g><g
           id="g3382"
           transform="translate(265.436,368.7734)"><path
             d="M 0,0 C 3.156,1.588 3.156,-4.836 0,-3.246 L 0,0 z"
             style="fill:#ffffff;fill-opacity:1;fill-rule:evenodd;stroke:none"
             id="path3384"
             inkscape:connector-curvature="0" /></g><g
           id="g3386"
           transform="translate(374.6865,367.6895)"><path
             d="M 0,0 3.247,0 C 2.672,-0.869 2.116,-1.754 2.164,-3.244 0.833,-2.771 -0.058,-1.857 0,0"
             style="fill:#ffffff;fill-opacity:1;fill-rule:evenodd;stroke:none"
             id="path3388"
             inkscape:connector-curvature="0" /></g><g
           id="g3390"
           transform="translate(440.6709,330.9141)"><path
             d="m 0,0 -1.082,0 c -0.42,-2.824 -0.556,-5.936 -2.163,-7.574 l -0.542,1.625 -1.62,-0.543 0,4.328 c -3.308,0.781 -3.945,-1.106 -6.492,-1.08 1.29,-3.016 1.239,-6.584 -1.081,-8.654 l -0.541,1.623 -1.623,0.539 0,4.328 c -3.309,0.783 -3.182,-1.867 -6.492,-1.084 1.446,-3.18 0.892,-7.164 -1.081,-9.733 l -0.539,1.62 -1.624,0.542 0,4.327 c -2.508,0.347 -4.152,-0.176 -5.407,-1.082 -2.444,0.509 2.489,-5.87 -1.082,-6.489 l -1.623,0.539 -1.621,-0.539 0,4.327 c -3.404,0.517 -4.231,-1.541 -6.491,-2.165 1.601,-3.683 -0.112,-8.793 -2.164,-11.898 l -0.542,1.623 -1.621,0.539 c -0.789,2.459 1.948,8.44 -2.163,7.574 -0.164,-2.002 -3.666,-0.662 -4.329,-2.162 1.912,-4.621 -1.352,-10.019 -3.244,-14.062 l -0.539,1.621 -1.624,0.541 c -0.237,3.482 1.914,4.576 1.082,8.652 -3.849,0.242 -6.481,-0.728 -7.572,-3.244 2.694,-2.766 -0.915,-8.406 -2.164,-10.818 l -0.539,1.623 -1.624,-0.541 0,8.654 c -2.771,-0.836 -6.133,-1.08 -7.571,-3.244 4.336,-2.813 -1.755,-11.236 -2.165,-16.225 l -1.621,0.539 -0.543,-1.621 c -13.424,-5.344 -37.454,6.408 -51.919,0 -4.115,-1.59 -0.214,4.834 -4.327,3.244 l -0.541,1.621 -0.541,-1.621 c -0.963,0.666 -1.936,1.309 -2.164,0 l -1.082,0.539 -1.081,-0.539 c -0.244,1.377 -3.229,1.418 -3.244,0 l -0.542,0.539 -0.541,0.543 c -7.998,0.477 -1.624,7.348 -3.244,15.143 l 0.54,1.625 -1.622,0.539 c 1.6,3.088 2.213,7.16 4.326,9.736 16.511,7.647 33.062,15.252 49.758,22.713 0.93,0.873 0.643,2.965 2.163,3.248 l 0.542,-1.625 1.624,0.543 c 1.744,1.5 5.572,0.914 6.488,3.244 l 1.624,0.54 -0.542,1.625 c 8.32,-1.524 13.277,6.703 21.635,7.57 6.391,0.664 16.275,-3.151 24.877,-4.326 13.671,-1.871 24.587,-1.723 36.778,-5.409 -0.884,-4.505 1.471,-9.029 0,-10.816 L -0.543,0.539 0,0 z"
             style="fill:#ffffff;fill-opacity:1;fill-rule:evenodd;stroke:none"
             id="path3392"
             inkscape:connector-curvature="0" /></g><g
           id="g3394"
           transform="translate(435.8027,322.8008)"><path
             d="m 0,0 1.623,0.539 0,-3.244 L 0,-2.162 -1.621,-1.623 C -1.714,-0.088 -1.8,1.441 -0.539,1.621 L 0,0 z"
             style="fill:#ffffff;fill-opacity:1;fill-rule:evenodd;stroke:none"
             id="path3396"
             inkscape:connector-curvature="0" /></g><g
           id="g3398"
           transform="translate(268.6821,459.6338)"><path
             d="m 0,0 c -1.461,5.1 0.444,10.851 -1.326,15.932 -3.841,0.113 -7.962,1.481 -11.608,0.24 -1.323,-6.141 -4.188,-13.039 -2.75,-18.877"
             style="fill:none;stroke:#ffffff;stroke-width:1.50399995;stroke-linecap:round;stroke-linejoin:miter;stroke-miterlimit:4;stroke-opacity:1;stroke-dasharray:none"
             id="path3400"
             inkscape:connector-curvature="0" /></g><g
           id="g3402"
           transform="translate(246.5078,412.5806)"><path
             d="m 0,0 c 2.281,-4.801 -1.054,-10.485 -0.379,-15.646 5.11,-1.353 10.621,-1.382 15.882,-2.382"
             style="fill:none;stroke:#ffffff;stroke-width:1.58399999;stroke-linecap:round;stroke-linejoin:miter;stroke-miterlimit:4;stroke-opacity:1;stroke-dasharray:none"
             id="path3404"
             inkscape:connector-curvature="0" /></g><g
           id="g3406"
           transform="translate(262.0107,394.5527)"><path
             d="M 0,0 C 1.239,4.913 0.989,10.386 2.344,15.324"
             style="fill:none;stroke:#ffffff;stroke-width:1.44000006;stroke-linecap:round;stroke-linejoin:miter;stroke-miterlimit:4;stroke-opacity:1;stroke-dasharray:none"
             id="path3408"
             inkscape:connector-curvature="0" /></g><g
           id="g3410"
           transform="translate(262.0107,394.5527)"><path
             d="M 0,0 C -0.251,-11.811 -3.846,-23.803 -3.065,-35.516"
             style="fill:none;stroke:#ffffff;stroke-width:1.54400003;stroke-linecap:round;stroke-linejoin:miter;stroke-miterlimit:4;stroke-opacity:1;stroke-dasharray:none"
             id="path3412"
             inkscape:connector-curvature="0" /></g><g
           id="g3414"
           transform="translate(318.9805,345.5156)"><path
             d="m 0,0 c 4.445,-3.631 10.511,-4.531 15.367,-7.348 1.001,-0.215 1.916,-0.095 2.694,0.118 1.813,3.267 3.168,6.607 4.89,9.89 -4.705,4.008 -9.628,7.729 -14.839,10.861"
             style="fill:none;stroke:#ffffff;stroke-width:1.28600001;stroke-linecap:round;stroke-linejoin:miter;stroke-miterlimit:4;stroke-opacity:1;stroke-dasharray:none"
             id="path3416"
             inkscape:connector-curvature="0" /></g><g
           id="g3418"
           transform="translate(187.5542,353.627)"><path
             d="m 0,0 c -4.769,-2.27 -7.603,-6.957 -12.165,-9.475 -0.389,-0.73 -0.626,-1.271 -0.763,-1.865 0.516,-3.494 3.711,-5.363 5.098,-8.404 0.863,-0.529 1.768,-0.313 3.011,-0.287 4.891,3.099 11.263,4.131 15.096,8.676"
             style="fill:none;stroke:#ffffff;stroke-width:1.33899999;stroke-linecap:round;stroke-linejoin:miter;stroke-miterlimit:4;stroke-opacity:1;stroke-dasharray:none"
             id="path3420"
             inkscape:connector-curvature="0" /></g><g
           id="g3422"
           transform="translate(436.8838,324.9648)"><path
             d="M 0,0 C -0.358,-0.721 -0.721,-1.443 -1.081,-2.164"
             style="fill:none;stroke:#ffffff;stroke-width:2.23600006;stroke-linecap:round;stroke-linejoin:miter;stroke-miterlimit:4;stroke-opacity:1;stroke-dasharray:none"
             id="path3424"
             inkscape:connector-curvature="0" /></g><g
           id="g3426"
           transform="translate(287.6108,292.5137)"><path
             d="m 0,0 c -92.941,-24.412 -157.348,64.018 -122.818,134.121 15.986,32.456 52.838,56.792 96.436,55.263 12.904,-0.453 24.289,-4.047 37.74,-7.12"
             style="fill:none;stroke:#ffffff;stroke-width:1.93900001;stroke-linecap:round;stroke-linejoin:miter;stroke-miterlimit:4;stroke-opacity:1;stroke-dasharray:none"
             id="path3428"
             inkscape:connector-curvature="0" /></g><g
           id="g3430"
           transform="translate(298.9688,474.7773)"><path
             d="m 0,0 c 42.674,1.49 86.851,0.302 130.021,0.217 0.361,-0.359 0.75,-0.69 1.14,-1.022 5.264,-8.534 11.399,-16.536 7.836,-27.319"
             style="fill:none;stroke:#ffffff;stroke-width:1.41400003;stroke-linecap:round;stroke-linejoin:miter;stroke-miterlimit:4;stroke-opacity:1;stroke-dasharray:none"
             id="path3432"
             inkscape:connector-curvature="0" /></g><g
           id="g3434"
           transform="translate(437.9658,446.6533)"><path
             d="m 0,0 c 6.867,-2.06 15.529,2.009 21.374,-2.963 0.443,-4.952 7.756,-9.094 8.241,-14.306 2.088,-22.341 -8.324,-61.193 -7.599,-84.359 -4.746,-0.654 -10.017,1.246 -14.986,1.57"
             style="fill:none;stroke:#ffffff;stroke-width:1.51999998;stroke-linecap:round;stroke-linejoin:miter;stroke-miterlimit:4;stroke-opacity:1;stroke-dasharray:none"
             id="path3436"
             inkscape:connector-curvature="0" /></g><g
           id="g3438"
           transform="translate(444.9961,346.5957)"><path
             d="m 0,0 c -1.2,-5.043 -0.491,-10.648 -2.217,-15.473 -0.585,-0.177 -1.487,0.227 -2.651,0.33"
             style="fill:none;stroke:#ffffff;stroke-width:1.648;stroke-linecap:round;stroke-linejoin:miter;stroke-miterlimit:4;stroke-opacity:1;stroke-dasharray:none"
             id="path3440"
             inkscape:connector-curvature="0" /></g><g
           id="g3442"
           transform="translate(287.6108,292.5137)"><path
             d="m 0,0 c 1.285,3.723 0.761,7.809 1.406,11.566 0.856,0.178 1.463,0.229 2.057,0.276 L 4.327,11.9"
             style="fill:none;stroke:#ffffff;stroke-width:1.60500002;stroke-linecap:round;stroke-linejoin:miter;stroke-miterlimit:4;stroke-opacity:1;stroke-dasharray:none"
             id="path3444"
             inkscape:connector-curvature="0" /></g><g
           id="g3446"
           transform="translate(298.9688,474.7773)"><path
             d="M 0,0 C 11.36,-8.049 24.662,-14.341 34.435,-25.059"
             style="fill:none;stroke:#ffffff;stroke-width:1.95599997;stroke-linecap:round;stroke-linejoin:miter;stroke-miterlimit:4;stroke-opacity:1;stroke-dasharray:none"
             id="path3448"
             inkscape:connector-curvature="0" /></g><g
           id="g3450"
           transform="translate(437.9658,446.6533)"><path
             d="M 0,0 C -34.827,0.461 -69.9,3.709 -104.563,3.065"
             style="fill:none;stroke:#ffffff;stroke-width:1.57299995;stroke-linecap:round;stroke-linejoin:miter;stroke-miterlimit:4;stroke-opacity:1;stroke-dasharray:none"
             id="path3452"
             inkscape:connector-curvature="0" /></g><g
           id="g3454"
           transform="translate(333.4033,449.7188)"><path
             d="M 0,0 C 3.943,-4.978 7.399,-10.825 11.896,-15.143"
             style="fill:none;stroke:#ffffff;stroke-width:1.80999994;stroke-linecap:round;stroke-linejoin:miter;stroke-miterlimit:4;stroke-opacity:1;stroke-dasharray:none"
             id="path3456"
             inkscape:connector-curvature="0" /></g><g
           id="g3458"
           transform="translate(444.9961,346.5957)"><path
             d="m 0,0 c 1.506,22.615 5.326,45.229 5.611,67.81 -1.087,2.004 -2.135,4.214 -3.74,5.996 -0.153,0.927 -0.644,1.519 -1.088,2.155 -1.17,2.475 -2.304,5.507 -4.702,7.117 -31.737,2.534 -64.25,4.495 -95.777,4.902"
             style="fill:none;stroke:#ffffff;stroke-width:1.53400004;stroke-linecap:round;stroke-linejoin:miter;stroke-miterlimit:4;stroke-opacity:1;stroke-dasharray:none"
             id="path3460"
             inkscape:connector-curvature="0" /></g><g
           id="g3462"
           transform="translate(345.2998,434.5757)"><path
             d="M 0,0 C 1.772,-6.175 5.901,-11.524 7.754,-17.667"
             style="fill:none;stroke:#ffffff;stroke-width:1.96099997;stroke-linecap:round;stroke-linejoin:miter;stroke-miterlimit:4;stroke-opacity:1;stroke-dasharray:none"
             id="path3464"
             inkscape:connector-curvature="0" /></g><g
           id="g3466"
           transform="translate(353.0537,416.9082)"><path
             d="M 0,0 2.703,0"
             style="fill:none;stroke:#ffffff;stroke-width:1.22500002;stroke-linecap:round;stroke-linejoin:miter;stroke-miterlimit:4;stroke-opacity:1;stroke-dasharray:none"
             id="path3468"
             inkscape:connector-curvature="0" /></g><g
           id="g3470"
           transform="translate(353.0537,416.9082)"><path
             d="M 0,0 C 8.925,-23.069 6.515,-48.803 -2.705,-71.393"
             style="fill:none;stroke:#ffffff;stroke-width:2.01099992;stroke-linecap:round;stroke-linejoin:miter;stroke-miterlimit:4;stroke-opacity:1;stroke-dasharray:none"
             id="path3472"
             inkscape:connector-curvature="0" /></g><g
           id="g3474"
           transform="translate(350.3486,345.5156)"><path
             d="M 0,0 C 1.731,-1.938 4.793,-0.102 6.492,-2.164"
             style="fill:none;stroke:#ffffff;stroke-width:1.37800002;stroke-linecap:round;stroke-linejoin:miter;stroke-miterlimit:4;stroke-opacity:1;stroke-dasharray:none"
             id="path3476"
             inkscape:connector-curvature="0" /></g><g
           id="g3478"
           transform="translate(350.3486,345.5156)"><path
             d="M 0,0 C -1.765,-1.785 -2.608,-4.127 -3.244,-6.49"
             style="fill:none;stroke:#ffffff;stroke-width:2.21700001;stroke-linecap:round;stroke-linejoin:miter;stroke-miterlimit:4;stroke-opacity:1;stroke-dasharray:none"
             id="path3480"
             inkscape:connector-curvature="0" /></g><g
           id="g3482"
           transform="translate(424.627,308.3789)"><path
             d="m 0,0 c 3.577,-1.008 -0.945,-5.773 1.938,-7.314 0.506,0.005 0.943,0.212 1.377,0.425 1.309,7.125 7.226,11.743 7.861,19.149"
             style="fill:none;stroke:#ffffff;stroke-width:1.88300002;stroke-linecap:round;stroke-linejoin:miter;stroke-miterlimit:4;stroke-opacity:1;stroke-dasharray:none"
             id="path3484"
             inkscape:connector-curvature="0" /></g><g
           id="g3486"
           transform="translate(414.8906,304.0527)"><path
             d="m 0,0 c 3.249,-0.475 -0.52,-6.773 3.065,-6.482 0.423,0.847 0.999,1.72 1.468,2.671 -0.368,3.844 2.3,6.288 5.203,8.137"
             style="fill:none;stroke:#ffffff;stroke-width:1.5;stroke-linecap:round;stroke-linejoin:miter;stroke-miterlimit:4;stroke-opacity:1;stroke-dasharray:none"
             id="path3488"
             inkscape:connector-curvature="0" /></g><g
           id="g3490"
           transform="translate(424.627,308.3789)"><path
             d="M 0,0 C -0.387,4.17 1.686,8.064 2.523,12.26"
             style="fill:none;stroke:#ffffff;stroke-width:2.3599999;stroke-linecap:round;stroke-linejoin:miter;stroke-miterlimit:4;stroke-opacity:1;stroke-dasharray:none"
             id="path3492"
             inkscape:connector-curvature="0" /></g><g
           id="g3494"
           transform="translate(405.5156,301.166)"><path
             d="M 0,0 C 3.42,-1.566 -1.24,-7.619 2.707,-7.926 5.106,-4.143 4.633,0.953 9.375,2.887"
             style="fill:none;stroke:#ffffff;stroke-width:1.54700005;stroke-linecap:round;stroke-linejoin:miter;stroke-miterlimit:4;stroke-opacity:1;stroke-dasharray:none"
             id="path3496"
             inkscape:connector-curvature="0" /></g><g
           id="g3498"
           transform="translate(414.8906,304.0527)"><path
             d="M 0,0 C -0.052,4.074 1.536,8.182 2.524,12.256"
             style="fill:none;stroke:#ffffff;stroke-width:2.31999993;stroke-linecap:round;stroke-linejoin:miter;stroke-miterlimit:4;stroke-opacity:1;stroke-dasharray:none"
             id="path3500"
             inkscape:connector-curvature="0" /></g><g
           id="g3502"
           transform="translate(394.6982,297.9219)"><path
             d="m 0,0 c 3.472,-1.662 1.065,-5.309 1.782,-8.066 0.663,-0.483 1.561,-0.375 2.229,-0.233 1.241,4.67 2.045,9.27 6.806,11.543"
             style="fill:none;stroke:#ffffff;stroke-width:1.653;stroke-linecap:round;stroke-linejoin:miter;stroke-miterlimit:4;stroke-opacity:1;stroke-dasharray:none"
             id="path3504"
             inkscape:connector-curvature="0" /></g><g
           id="g3506"
           transform="translate(405.5156,301.166)"><path
             d="M 0,0 C -0.312,4.484 1.603,8.652 2.163,12.98"
             style="fill:none;stroke:#ffffff;stroke-width:3;stroke-linecap:round;stroke-linejoin:miter;stroke-miterlimit:4;stroke-opacity:1;stroke-dasharray:none"
             id="path3508"
             inkscape:connector-curvature="0" /></g><g
           id="g3510"
           transform="translate(383.8799,292.5137)"><path
             d="m 0,0 c 3.834,-1.072 -1.486,-7.705 2.699,-7.918 0.372,0.58 0.87,1.148 1.389,1.674 0.293,5.254 4.556,7.609 6.73,11.652"
             style="fill:none;stroke:#ffffff;stroke-width:1.55499995;stroke-linecap:round;stroke-linejoin:miter;stroke-miterlimit:4;stroke-opacity:1;stroke-dasharray:none"
             id="path3512"
             inkscape:connector-curvature="0" /></g><g
           id="g3514"
           transform="translate(394.6982,297.9219)"><path
             d="M 0,0 C 1.156,2.436 0.394,5.445 2.163,7.572"
             style="fill:none;stroke:#ffffff;stroke-width:2.93899989;stroke-linecap:round;stroke-linejoin:miter;stroke-miterlimit:4;stroke-opacity:1;stroke-dasharray:none"
             id="path3516"
             inkscape:connector-curvature="0" /></g><g
           id="g3518"
           transform="translate(371.9844,287.1035)"><path
             d="M 0,0 C 3.793,-0.535 0.749,-4.553 1.878,-6.727 2.445,-6.979 3.177,-6.93 3.75,-6.854 5.578,-1.916 7.549,2.686 11.896,5.41"
             style="fill:none;stroke:#ffffff;stroke-width:1.71899998;stroke-linecap:round;stroke-linejoin:miter;stroke-miterlimit:4;stroke-opacity:1;stroke-dasharray:none"
             id="path3520"
             inkscape:connector-curvature="0" /></g><g
           id="g3522"
           transform="translate(383.8799,292.5137)"><path
             d="M 0,0 C -0.127,2.227 -0.046,4.498 1.085,6.49"
             style="fill:none;stroke:#ffffff;stroke-width:2.95000005;stroke-linecap:round;stroke-linejoin:miter;stroke-miterlimit:4;stroke-opacity:1;stroke-dasharray:none"
             id="path3524"
             inkscape:connector-curvature="0" /></g><g
           id="g3526"
           transform="translate(287.6108,292.5137)"><path
             d="m 0,0 c 1.053,-2.104 0.067,-4.586 0.789,-6.725 6.024,1.594 1.218,-7.498 5.405,-6.974 1.251,2.502 1.128,5.515 1.378,8.289"
             style="fill:none;stroke:#ffffff;stroke-width:1.72599995;stroke-linecap:round;stroke-linejoin:miter;stroke-miterlimit:4;stroke-opacity:1;stroke-dasharray:none"
             id="path3528"
             inkscape:connector-curvature="0" /></g><g
           id="g3530"
           transform="translate(361.167,284.9414)"><path
             d="m 0,0 c 2.854,-2.746 0.645,-8.877 3.788,-10.088 1.952,4.701 3.292,8.797 7.029,12.25"
             style="fill:none;stroke:#ffffff;stroke-width:1.61199999;stroke-linecap:round;stroke-linejoin:miter;stroke-miterlimit:4;stroke-opacity:1;stroke-dasharray:none"
             id="path3532"
             inkscape:connector-curvature="0" /></g><g
           id="g3534"
           transform="translate(371.9844,287.1035)"><path
             d="M 0,0 C 0.958,2.826 0.707,5.975 2.163,8.654"
             style="fill:none;stroke:#ffffff;stroke-width:2.55800009;stroke-linecap:round;stroke-linejoin:miter;stroke-miterlimit:4;stroke-opacity:1;stroke-dasharray:none"
             id="path3536"
             inkscape:connector-curvature="0" /></g><g
           id="g3538"
           transform="translate(300.0503,287.1035)"><path
             d="m 0,0 c 0.231,-1.541 0.207,-3.387 1.126,-4.664 2.729,-0.164 2.667,3.793 2.661,5.746"
             style="fill:none;stroke:#ffffff;stroke-width:1.70099998;stroke-linecap:round;stroke-linejoin:miter;stroke-miterlimit:4;stroke-opacity:1;stroke-dasharray:none"
             id="path3540"
             inkscape:connector-curvature="0" /></g><g
           id="g3542"
           transform="translate(204.3643,394.9014)"><path
             d="m 0,0 -0.981,-12.378 -0.758,-0.648 -10.994,0.871 -0.647,0.759 0.107,1.346 0.758,0.649 2.727,-0.217 1.494,1.277 6.198,-0.49 0.222,2.793 -11.012,0.873 0.108,1.366 11.012,-0.872 0.218,2.752 -10.309,0.817 -0.647,0.76 0.105,1.325 0.758,0.648 L -0.647,0.76 0,0 z"
             style="fill:#ffffff;fill-opacity:1;fill-rule:nonzero;stroke:none"
             id="path3544"
             inkscape:connector-curvature="0" /></g><g
           id="g3546"
           transform="translate(197.501,409.9829)"><path
             d="m 0,0 1.879,-0.959 1.811,0.591 6.155,-3.141 0.297,-0.92 -1.246,-2.442 -0.949,-0.308 -9.823,5.012 -0.307,0.95 2.826,5.538 0.932,0.318 -0.29,0.94 2.176,4.265 0.948,0.307 L 14.251,5.129 14.549,4.208 13.926,2.987 13.007,2.688 3.775,7.398 2.51,4.919 12.35,-0.101 11.727,-1.322 1.888,3.699 0,0 z"
             style="fill:#ffffff;fill-opacity:1;fill-rule:nonzero;stroke:none"
             id="path3548"
             inkscape:connector-curvature="0" /></g><g
           id="g3550"
           transform="translate(223.6191,427.7168)"><path
             d="m 0,0 -0.04,-0.997 -6.065,-5.613 -0.997,0.038 -7.491,8.094 0.055,1.011 0.975,0.903 0.998,-0.038 1.872,-2.023 1.934,-0.073 4.223,-4.564 3.064,2.835 -7.503,8.108 1.006,0.93 L 0,0 z"
             style="fill:#ffffff;fill-opacity:1;fill-rule:nonzero;stroke:none"
             id="path3552"
             inkscape:connector-curvature="0" /></g><g
           id="g3554"
           transform="translate(233.1563,438.8599)"><path
             d="M 0,0 -5.576,-2.776 -6.196,-1.531 -0.62,1.246 0,0 z"
             style="fill:#ffffff;fill-opacity:1;fill-rule:nonzero;stroke:none"
             id="path3556"
             inkscape:connector-curvature="0" /></g><g
           id="g3558"
           transform="translate(225.8086,322.418)"><path
             d="M 0,0 4.654,8.461 -0.186,11.123 -1.192,9.293 -0.649,7.438 -3.639,2.002 0,0 z M 6.175,8.383 0.88,-1.244 -0.106,-1.529 -7.311,2.434 -7.598,3.42 l 5.296,9.627 0.986,0.285 7.205,-3.963 0.286,-0.986 z"
             style="fill:#ffffff;fill-opacity:1;fill-rule:nonzero;stroke:none"
             id="path3560"
             inkscape:connector-curvature="0" /></g><g
           id="g3562"
           transform="translate(238.4058,327.7207)"><path
             d="M 0,0 -0.763,-2.633 4.542,-4.17 4.154,-5.506 0.186,-4.355 -1.352,-9.66 l 3.969,-1.151 -0.388,-1.337 -7.279,2.111 -0.482,0.873 3.071,10.592 0.874,0.48 L 5.692,-0.201 5.305,-1.537 0,0 z"
             style="fill:#ffffff;fill-opacity:1;fill-rule:nonzero;stroke:none"
             id="path3564"
             inkscape:connector-curvature="0" /></g><g
           id="g3566"
           transform="translate(250.7876,325.1055)"><path
             d="m 0,0 -0.127,-2.084 1.284,-1.467 -0.377,-6.17 4.166,-0.254 0.085,1.389 1.367,-0.084 -0.126,-2.072 -0.748,-0.662 -8.249,0.504 -0.661,0.746 0.672,11.008 0.746,0.66 L 6.284,1.01 6.944,0.264 6.818,-1.789 5.451,-1.705 5.534,-0.338 0,0 z"
             style="fill:#ffffff;fill-opacity:1;fill-rule:nonzero;stroke:none"
             id="path3568"
             inkscape:connector-curvature="0" /></g><g
           id="g3570"
           transform="translate(268.9478,320.3438)"><path
             d="M 0,0 -6.166,-0.885 -6.364,0.492 -0.198,1.377 0,0 z"
             style="fill:#ffffff;fill-opacity:1;fill-rule:nonzero;stroke:none"
             id="path3572"
             inkscape:connector-curvature="0" /></g><g
           id="g3574"
           transform="translate(273.2803,323.4785)"><path
             d="M 0,0 0.939,1.76 0.146,4.357 0.616,5.238 1.907,5.631 2.788,5.164 6.006,-5.385 5.537,-6.266 2.896,-7.07 2.015,-6.604 0,0 z"
             style="fill:#ffffff;fill-opacity:1;fill-rule:nonzero;stroke:none"
             id="path3576"
             inkscape:connector-curvature="0" /></g><g
           id="g3578"
           transform="translate(285.6768,332.1035)"><path
             d="M 0,0 -4.955,-2.533 -0.56,-11.131 3.12,-9.248 0.306,-3.744 0.941,-1.84 0,0 z m -1.467,-12.365 -5.02,9.82 0.307,0.949 7.377,3.77 0.949,-0.305 5.021,-9.82 -0.308,-0.949 -7.377,-3.772 -0.949,0.307 z"
             style="fill:#ffffff;fill-opacity:1;fill-rule:nonzero;stroke:none"
             id="path3580"
             inkscape:connector-curvature="0" /></g><g
           id="g3582"
           transform="translate(308.1973,413.8335)"><path
             d="M 0,0 -3.288,5.292 -2.105,6.026 1.182,0.734 0,0 z"
             style="fill:#ffffff;fill-opacity:1;fill-rule:nonzero;stroke:none"
             id="path3584"
             inkscape:connector-curvature="0" /></g><g
           id="g3586"
           transform="translate(312.0947,410.8188)"><path
             d="M 0,0 1.846,-0.757 4.351,0.293 5.273,-0.085 5.795,-1.33 5.418,-2.253 -4.752,-6.519 -5.675,-6.14 -6.743,-3.593 -6.366,-2.669 0,0 z"
             style="fill:#ffffff;fill-opacity:1;fill-rule:nonzero;stroke:none"
             id="path3588"
             inkscape:connector-curvature="0" /></g><g
           id="g3590"
           transform="translate(314.5742,396.5044)"><path
             d="M 0,0 -1.472,6.053 -0.12,6.382 1.352,0.329 0,0 z"
             style="fill:#ffffff;fill-opacity:1;fill-rule:nonzero;stroke:none"
             id="path3592"
             inkscape:connector-curvature="0" /></g></g></g></g></svg>
